<svg id="Capa_1" data-name="Capa 1" xmlns="http://www.w3.org/2000/svg" viewBox="0 0 254 103"><defs><style>.cls-1{fill:#f4f4f4;}.cls-2{fill:none;stroke:#f4f4f4;stroke-miterlimit:10;}.cls-3{fill:#c1303a;}</style></defs><title>am-gik-borders</title><path class="cls-1" d="M27.11,23.65H21.21L27.77,9.31l2.71,6ZM34.76,22h-6L30,19h3.32L28.43,8.63h6l7.32,15H35.53Z"/><path class="cls-1" d="M43.46,23.65V10l5.72,7.84v5.78Zm0-15H50l4.93,6.68,3.88-5.43v7.56l-4.42,6.21Zm16.21,15v-15H65.8v15Z"/><path class="cls-2" d="M82.32,82.6a31.83,31.83,0,0,1-3.25-.17,27.34,27.34,0,0,1-11.7-4.15A20.91,20.91,0,0,1,60,70.15a50.14,50.14,0,0,1-12.38,1.49q-12.79,0-20.73-5.56T18.95,51.45q0-9.07,8.12-14.58t21.38-5.5a85.81,85.81,0,0,1,14.88,1.27,38.13,38.13,0,0,1,5.28,1.22l-.68,10.62h-.61a12.87,12.87,0,0,0-6.39-7.77,24,24,0,0,0-11.53-2.57A14.38,14.38,0,0,0,38.22,39q-4.4,4.87-4.4,12.83a20,20,0,0,0,1.89,8.91,14,14,0,0,0,5.41,6,14.78,14.78,0,0,0,7.81,2.13,12.15,12.15,0,0,0,6.76-1.63A4.94,4.94,0,0,0,58.18,63V55.44a2,2,0,0,0-.85-1.88,4.38,4.38,0,0,0-2.6-.66h-1v-.55H76.44v.55H75.36a4.09,4.09,0,0,0-2.5.66A2.06,2.06,0,0,0,72,55.44v9a14.25,14.25,0,0,0,1.56,6.36,16.67,16.67,0,0,0,11.23,9,18.53,18.53,0,0,0,4.46.55,25,25,0,0,0,4.4-.39l.13.55A34.48,34.48,0,0,1,82.32,82.6Z"/><path class="cls-3" d="M113.69,32.5s-.8,17.42-17.52,26.28c0,0,18,9.09,17.88,42,0,0-3.18-27.67,17.34-42C131.4,58.78,117.45,54.25,113.69,32.5Z"/><path class="cls-2" d="M141,70.32a4.6,4.6,0,0,0,3-1,3.3,3.3,0,0,0,1.32-2.46V36.13A3.22,3.22,0,0,0,144,33.7a4.69,4.69,0,0,0-3-1h-.88v-.55h24.28v.55h-.88a4.68,4.68,0,0,0-3,1,3.21,3.21,0,0,0-1.32,2.43v30.7a3.06,3.06,0,0,0,1.29,2.46,4.73,4.73,0,0,0,3,1h.88v.55H140.1v-.55Zm71.83,10.35a30.72,30.72,0,0,1-12.92,3.1q-8.79,0-17.25-7.19a64.38,64.38,0,0,1-6.43-6.42L161.34,53.28l16.17-18a1.62,1.62,0,0,0,.47-1,1.45,1.45,0,0,0-.2-.77,2,2,0,0,0-1.89-.83h-.68v-.5h16.3v.5h-.27a10.48,10.48,0,0,0-7.44,2.71L172.23,46.81l15.49,17.81q7.37,8.46,12.68,11.73a26.25,26.25,0,0,0,12.28,3.71Z"/></svg>