<svg id="Capa_1" data-name="Capa 1" xmlns="http://www.w3.org/2000/svg" viewBox="0 0 58.99 64.8"><defs><style>.cls-1{fill:#f4f4f4;}</style></defs><title>symbols</title><path class="cls-1" d="M4.81,45.85C10,55.5,18.12,54,18.12,54A13.8,13.8,0,0,0,29.49,43.92,13.8,13.8,0,0,0,40.87,54S49,55.5,54.18,45.85a14.68,14.68,0,0,0,1.5-9s.19-6.33-6.44-11.38L29.49,2.71,9.75,25.46c-5.58,3-6.44,11.38-6.44,11.38A14.68,14.68,0,0,0,4.81,45.85Z"/><polygon class="cls-1" points="29.49 46.21 20.07 62.1 38.92 62.1 29.49 46.21"/></svg>